<?xml version="1.0" standalone="no"?>
<!DOCTYPE svg PUBLIC "-//W3C//DTD SVG 20010904//EN"
 "http://www.w3.org/TR/2001/REC-SVG-20010904/DTD/svg10.dtd">
<svg version="1.0" xmlns="http://www.w3.org/2000/svg"
 width="512.000000pt" height="512.000000pt" viewBox="0 0 512.000000 512.000000"
 preserveAspectRatio="xMidYMid meet">
<metadata>
Created by potrace 1.11, written by Peter Selinger 2001-2013
</metadata>
<g transform="translate(0.000000,512.000000) scale(0.100000,-0.100000)"
fill="#000000" stroke="none">
<path d="M2223 4688 c-38 -10 -65 -53 -65 -103 l0 -33 -36 24 c-75 51 -213 69
-339 44 -95 -19 -334 -117 -293 -120 8 -1 34 -4 56 -6 43 -4 151 -11 219 -13
l40 -2 -60 -23 c-98 -38 -196 -91 -406 -221 -43 -27 -304 -211 -377 -266 l-65
-49 128 0 127 0 -62 -41 c-208 -139 -617 -640 -899 -1101 -42 -70 -42 -76 6
-57 69 27 187 69 195 69 4 0 -2 -17 -15 -37 -25 -41 -75 -143 -100 -208 -73
-185 -97 -250 -152 -418 -35 -105 -62 -194 -59 -199 3 -5 13 -7 22 -4 10 3 62
8 117 11 55 4 117 8 139 10 36 4 38 3 23 -13 -69 -76 -69 -358 0 -684 l16 -78
56 99 c31 55 59 97 62 93 4 -4 25 -108 49 -232 23 -124 46 -238 50 -255 5 -16
14 -60 20 -98 7 -37 14 -67 15 -67 3 0 121 52 171 76 18 9 37 13 42 10 5 -3
40 -54 77 -113 108 -171 138 -214 146 -206 4 5 43 56 87 115 l79 107 22 -54
c29 -70 80 -127 145 -164 73 -41 117 -53 199 -53 86 -1 165 20 230 62 40 25
57 30 95 27 26 -2 73 2 105 10 58 13 151 55 162 72 3 6 29 10 58 10 29 0 71 4
95 9 25 6 57 6 80 1 45 -10 200 -11 262 0 25 4 59 4 75 -1 17 -4 55 -8 85 -9
41 -2 67 -10 102 -31 43 -26 75 -39 133 -54 11 -3 49 -5 85 -5 55 0 72 -5 113
-31 109 -70 270 -81 393 -27 24 11 46 24 50 30 3 6 13 8 21 5 8 -3 11 -1 8 4
-3 5 4 15 15 22 29 18 89 110 96 147 4 17 9 31 13 31 3 -1 44 -53 90 -117 82
-112 85 -115 100 -94 9 11 57 86 106 166 50 79 94 144 99 145 5 0 54 -20 109
-45 55 -25 101 -44 102 -43 2 2 22 97 45 213 50 253 46 230 56 285 4 25 8 47
9 50 8 36 18 97 17 103 -7 27 23 -15 68 -93 28 -50 53 -90 55 -90 6 0 29 107
40 185 3 22 7 51 10 65 34 181 24 420 -19 482 -23 32 -20 38 17 33 30 -4 192
-16 247 -19 32 -1 32 -2 -35 199 -94 284 -186 514 -247 619 l-29 48 25 -6 c14
-3 38 -11 53 -17 15 -7 62 -24 104 -39 l77 -27 -56 86 c-168 262 -363 533
-526 731 -104 127 -292 312 -365 359 l-64 41 127 0 128 0 -68 53 c-38 29 -91
68 -119 87 -27 18 -52 36 -55 39 -6 7 -197 134 -305 203 -81 51 -249 137 -315
161 l-45 15 40 2 c22 1 60 3 85 5 25 2 78 6 119 10 41 3 77 7 79 10 2 2 -21
16 -51 30 -237 108 -427 128 -560 57 -29 -15 -55 -28 -59 -30 -5 -2 -8 10 -8
28 0 101 -74 126 -262 86 -16 -3 -39 -8 -53 -11 -13 -3 -36 -10 -50 -15 -18
-7 -49 -4 -113 11 -146 35 -206 41 -259 27z m-26 -401 c68 -79 156 -237 206
-372 57 -154 102 -373 106 -521 1 -30 1 -30 52 -28 29 2 53 5 54 6 1 2 5 37 9
78 12 142 43 290 93 440 28 84 122 280 135 280 4 0 8 5 8 11 0 13 46 75 78
107 29 28 66 28 86 0 23 -33 20 -45 -22 -102 -52 -71 -86 -124 -107 -171 -11
-22 -24 -43 -29 -47 -6 -4 -8 -8 -4 -8 6 0 -8 -43 -32 -95 -44 -94 -115 -495
-91 -509 3 -2 34 -7 69 -11 60 -7 62 -6 62 17 1 45 78 248 125 328 65 111 148
200 185 200 27 0 59 -21 61 -41 1 -5 2 -15 4 -21 2 -16 -17 -48 -51 -85 -35
-37 -93 -126 -121 -187 -25 -51 -87 -245 -81 -251 1 -1 39 -17 83 -35 162 -64
305 -154 421 -263 89 -83 177 -193 168 -209 -4 -7 -4 -10 1 -6 5 5 19 -8 32
-27 40 -59 121 -245 106 -245 -3 0 -1 -6 5 -12 20 -26 49 -214 43 -284 -1 -15
-351 -15 -352 0 -8 113 -66 234 -145 306 -47 43 -135 88 -186 97 -22 3 -35 10
-31 16 3 5 2 8 -3 4 -5 -3 -39 -6 -74 -8 -120 -4 -215 -45 -295 -126 -46 -47
-90 -114 -100 -154 -6 -23 -9 -24 -101 -24 l-94 0 -25 54 c-121 260 -465 334
-670 143 -84 -77 -122 -146 -140 -252 l-11 -65 -180 0 -179 0 2 45 c3 76 14
149 23 155 4 3 6 13 3 23 -8 34 60 212 120 314 136 230 407 450 652 528 79 25
77 20 51 112 -25 89 -67 189 -108 253 -14 22 -25 42 -26 45 0 3 -23 29 -50 57
-33 36 -48 60 -46 75 1 13 3 26 3 30 2 17 35 38 60 38 28 0 75 -43 140 -127
62 -81 149 -281 166 -382 l7 -42 41 6 c23 3 51 7 62 9 11 3 23 5 27 5 4 1 6
13 3 29 -2 15 -6 54 -9 87 -5 52 -11 95 -30 190 -21 108 -87 292 -134 375 -14
25 -48 78 -76 119 -57 83 -61 97 -40 129 19 30 64 29 91 -1z m-854 -613 c90
-18 205 -67 263 -111 l46 -36 -45 -45 -45 -45 -49 30 c-90 55 -171 79 -294 88
-47 3 -79 11 -91 22 -24 22 -23 68 2 93 25 25 105 26 213 4z m2657 -4 c25 -25
26 -61 3 -89 -15 -17 -33 -22 -102 -26 -98 -7 -214 -42 -278 -86 -24 -16 -47
-29 -51 -29 -4 0 -27 19 -50 43 l-42 43 22 21 c45 41 154 97 209 108 9 2 33 8
55 14 54 15 79 18 152 20 50 1 66 -3 82 -19z m-2530 -445 c0 -3 -28 -34 -62
-69 l-63 -63 -68 -2 c-37 -1 -77 -4 -90 -6 -12 -2 -44 -6 -71 -10 -107 -13
-213 -38 -303 -70 -105 -37 -136 -35 -153 10 -15 41 4 73 56 97 26 11 52 21
58 22 6 2 40 12 76 23 65 21 201 46 330 61 86 10 290 15 290 7z m2505 -9 c11
-2 45 -7 75 -11 124 -16 315 -67 383 -102 50 -25 57 -88 13 -116 -26 -17 -26
-17 -156 26 -123 40 -228 61 -375 72 -149 12 -145 11 -206 72 -32 31 -55 61
-52 66 5 9 267 3 318 -7z m-3099 -782 c18 -44 1 -70 -72 -108 -84 -45 -139
-84 -217 -155 -44 -40 -76 -61 -92 -61 -30 0 -65 36 -65 67 0 50 166 191 313
266 80 41 114 39 133 -9z m3490 20 c61 -25 193 -116 264 -181 56 -52 64 -64
64 -96 0 -25 -6 -42 -19 -52 -36 -26 -63 -18 -128 43 -67 63 -154 124 -230
161 -54 27 -62 36 -70 72 -5 18 -1 32 14 47 24 26 53 28 105 6z m-2233 -30
c156 -52 210 -256 101 -383 -117 -136 -338 -93 -398 76 -36 102 2 219 89 279
63 44 132 53 208 28z m1029 -3 c40 -15 97 -70 120 -115 12 -23 22 -65 24 -94
5 -102 -43 -184 -132 -228 -46 -23 -63 -26 -118 -22 -256 20 -300 375 -59 464
40 15 120 12 165 -5z m-531 -238 c11 -113 65 -228 138 -297 16 -16 28 -33 26
-37 -3 -4 -8 -29 -11 -56 -18 -159 -258 -227 -391 -110 -38 33 -52 62 -58 118
-2 19 -5 40 -6 45 -2 5 16 29 40 54 60 63 99 144 115 242 7 40 10 41 99 46 26
2 47 -1 48 -5z m-1615 -80 c3 -26 7 -57 9 -69 4 -17 -11 -33 -73 -81 -42 -33
-106 -88 -142 -121 -36 -34 -74 -62 -85 -62 -37 0 -65 28 -65 64 0 28 11 44
68 100 64 63 273 228 280 221 2 -2 6 -25 8 -52z m3197 -12 c107 -80 122 -93
200 -168 63 -62 73 -97 37 -133 -31 -31 -67 -25 -108 18 -36 38 -142 128 -216
185 -24 19 -35 34 -32 45 3 9 6 37 7 62 2 45 6 60 15 60 3 0 46 -31 97 -69z
m-2556 -54 c7 -16 10 -34 6 -41 -3 -6 -3 -8 2 -4 4 4 20 -12 35 -35 70 -111
192 -180 338 -191 17 -1 38 -8 44 -14 7 -7 9 -12 5 -12 -3 0 -2 -11 3 -24 8
-22 6 -25 -38 -36 -263 -66 -458 -169 -587 -308 l-42 -44 -37 32 c-73 64 -115
146 -120 232 -2 46 13 119 34 158 18 34 21 133 5 188 -7 26 -16 65 -20 87 l-6
40 183 0 183 0 12 -28z m2179 -10 c-4 -21 -13 -56 -21 -79 -19 -58 -13 -161
15 -223 21 -49 29 -129 17 -186 -10 -50 -56 -125 -101 -167 -25 -23 -48 -42
-50 -42 -2 0 -31 26 -63 58 -116 114 -246 190 -433 253 -87 29 -119 37 -153
38 -14 1 -17 9 -15 41 1 22 7 41 12 41 6 1 32 3 57 5 154 11 297 113 358 256
l18 43 182 0 183 0 -6 -38z m-1510 -607 c79 -39 170 -58 257 -54 85 5 135 18
212 56 48 24 68 29 100 24 22 -4 55 -9 72 -11 193 -29 395 -130 510 -254 101
-108 182 -346 148 -429 -36 -84 -180 -91 -251 -11 -29 32 -74 119 -75 144 0
13 -7 5 -22 -24 -12 -24 -33 -52 -47 -62 -83 -60 -204 7 -224 124 l-7 37 -33
-35 c-59 -62 -129 -76 -186 -36 -31 22 -70 96 -70 134 l0 29 -26 -32 c-15 -17
-39 -37 -55 -45 -60 -31 -163 -9 -196 41 -20 31 -28 30 -31 -3 -1 -15 -12 -47
-23 -71 -48 -99 -185 -99 -244 0 -9 15 -22 28 -28 27 -9 0 -9 -2 0 -5 12 -6 2
-56 -23 -109 -17 -37 -72 -74 -116 -79 -63 -7 -108 25 -133 92 -7 20 -14 31
-14 25 -2 -28 -55 -124 -87 -156 -53 -53 -123 -66 -201 -36 -34 13 -56 70 -48
128 22 167 75 275 187 383 119 116 229 166 513 231 47 11 82 5 141 -23z m1813
-133 c111 -211 128 -279 76 -307 -49 -26 -72 -8 -120 98 -25 53 -49 104 -55
112 -5 8 -17 30 -25 49 -14 31 -14 36 2 60 10 14 26 43 36 64 23 44 21 46 86
-76z m-3019 -28 c0 -4 -13 -34 -29 -66 -17 -32 -45 -92 -64 -135 -36 -79 -56
-95 -101 -84 -37 9 -50 53 -31 105 18 51 105 230 136 280 l21 35 34 -64 c19
-35 34 -67 34 -71z"/>
</g>
</svg>
